<svg xmlns="http://www.w3.org/2000/svg" viewBox="0 0 304.31 113.78"><defs><style>.cls-1{fill:#40e0d0;}.cls-2{fill:#3066be;}.cls-3{fill:#214785;}</style></defs><title>Asset 3</title><g id="Layer_2" data-name="Layer 2"><g id="Layer_2-2" data-name="Layer 2"><path class="cls-1" d="M229.93,23c3.86,0,3.87-6,0-6s-3.87,6,0,6Z"/><path class="cls-1" d="M128.93,12.11c5.79,0,5.8-9,0-9s-5.8,9,0,9Z"/><path class="cls-1" d="M91.93,20.78a1.5,1.5,0,0,0,0-3,1.5,1.5,0,0,0,0,3Z"/><path class="cls-1" d="M45.93,10c5.15,0,5.16-8,0-8s-5.15,8,0,8Z"/><path class="cls-1" d="M70.93,89.11c4.51,0,4.51-7,0-7s-4.51,7,0,7Z"/><path class="cls-1" d="M153.27,81.78c5.79,0,5.8-9,0-9s-5.81,9,0,9Z"/><path class="cls-1" d="M94.27,113.78c7.07,0,7.08-11,0-11s-7.09,11,0,11Z"/><path class="cls-1" d="M112.27,81.61c2.57,0,2.57-4,0-4s-2.58,4,0,4Z"/><path class="cls-1" d="M176.27,107c5.14,0,5.15-8,0-8s-5.16,8,0,8Z"/><path class="cls-1" d="M198.6,83.11c3.22,0,3.22-5,0-5s-3.22,5,0,5Z"/><path class="cls-1" d="M243.27,109.11c5.79,0,5.8-9,0-9s-5.81,9,0,9Z"/><path class="cls-1" d="M271.27,83.11c5.79,0,5.8-9,0-9s-5.81,9,0,9Z"/><path class="cls-1" d="M300.93,58.45c4.51,0,4.51-7,0-7s-4.51,7,0,7Z"/><path class="cls-1" d="M288.93,29.45c5.79,0,5.8-9,0-9s-5.8,9,0,9Z"/><path class="cls-1" d="M15.6,70.28c5.15,0,5.15-8,0-8s-5.16,8,0,8Z"/><path class="cls-1" d="M1.93,26.28c2.58,0,2.58-4,0-4s-2.58,4,0,4Z"/><path class="cls-1" d="M31.27,100.11c4.5,0,4.51-7,0-7s-4.52,7,0,7Z"/><path class="cls-2" d="M131.94,89.61l1.19,1.3a1,1,0,0,0,.87.31l1.74-.24a1,1,0,0,1,1,1.49L135.88,94a1,1,0,0,0,0,.93l.77,1.58a1,1,0,0,1-1.11,1.42l-1.72-.36a1,1,0,0,0-.89.26l-1.27,1.22a1,1,0,0,1-1.69-.61l-.19-1.75a1,1,0,0,0-.52-.77l-1.55-.83a1,1,0,0,1,.06-1.8l1.6-.72a1,1,0,0,0,.57-.73l.31-1.74A1,1,0,0,1,131.94,89.61Z"/><path class="cls-2" d="M159.46,15.3l.53,1.46a.91.91,0,0,0,.61.55l1.5.38a.89.89,0,0,1,.33,1.55l-1.23,1a.9.9,0,0,0-.33.75L161,22.5a.88.88,0,0,1-1.37.78l-1.29-.86a.87.87,0,0,0-.81-.09L156,22.9a.88.88,0,0,1-1.17-1.06l.43-1.5a.89.89,0,0,0-.17-.8l-1-1.2a.88.88,0,0,1,.65-1.44l1.55-.06a.87.87,0,0,0,.71-.4l.84-1.31A.88.88,0,0,1,159.46,15.3Z"/><path class="cls-2" d="M89.76.33l.49,1a.62.62,0,0,0,.47.33l1.07.13a.62.62,0,0,1,.37,1l-.76.77a.6.6,0,0,0-.16.54l.2,1.06a.61.61,0,0,1-.87.67l-1-.48a.61.61,0,0,0-.57,0l-.94.52a.61.61,0,0,1-.9-.62l.16-1.07a.64.64,0,0,0-.19-.54l-.79-.73a.61.61,0,0,1,.31-1l1.07-.18a.62.62,0,0,0,.45-.35l.46-1A.61.61,0,0,1,89.76.33Z"/><path class="cls-2" d="M244.45,76.29l.29,1.14a.66.66,0,0,0,.42.47l1.1.41a.67.67,0,0,1,.12,1.19l-1,.63a.66.66,0,0,0-.32.54l0,1.17a.67.67,0,0,1-1.1.49l-.9-.76a.67.67,0,0,0-.61-.13l-1.13.32a.67.67,0,0,1-.8-.9l.44-1.09a.68.68,0,0,0-.07-.62l-.65-1a.67.67,0,0,1,.6-1l1.18.08a.67.67,0,0,0,.57-.25l.73-.92A.66.66,0,0,1,244.45,76.29Z"/><path class="cls-2" d="M264.59,10l.31,1.27a.76.76,0,0,0,.47.52l1.22.45a.75.75,0,0,1,.14,1.33l-1.11.7a.73.73,0,0,0-.35.6l0,1.3a.74.74,0,0,1-1.22.54l-1-.84a.73.73,0,0,0-.67-.14l-1.26.35a.75.75,0,0,1-.89-1l.49-1.21a.74.74,0,0,0-.08-.69l-.72-1.09a.74.74,0,0,1,.67-1.15l1.31.09a.76.76,0,0,0,.63-.28l.81-1A.75.75,0,0,1,264.59,10Z"/><path class="cls-2" d="M39.08,73.52l.6,1.29a.77.77,0,0,0,.6.46l1.4.24a.81.81,0,0,1,.41,1.4l-1,1a.79.79,0,0,0-.25.71L41,80a.81.81,0,0,1-1.2.83l-1.24-.7a.8.8,0,0,0-.75,0l-1.28.63a.81.81,0,0,1-1.15-.88l.27-1.4a.77.77,0,0,0-.21-.72l-1-1a.81.81,0,0,1,.48-1.37l1.42-.17a.82.82,0,0,0,.62-.43l.66-1.26A.81.81,0,0,1,39.08,73.52Z"/><path class="cls-2" d="M38.1,34.22l.41,1.07a.68.68,0,0,0,.47.4L40.1,36a.65.65,0,0,1,.27,1.14l-.9.74a.65.65,0,0,0-.24.56l.1,1.15a.66.66,0,0,1-1,.61l-1-.63a.69.69,0,0,0-.61-.05l-1.07.45a.66.66,0,0,1-.89-.78l.3-1.11a.69.69,0,0,0-.14-.6l-.75-.87a.66.66,0,0,1,.46-1.09l1.15-.06a.67.67,0,0,0,.52-.32l.6-1A.66.66,0,0,1,38.1,34.22Z"/><path class="cls-3" d="M61.62,50.63v7.5a1.5,1.5,0,0,0,1.17,1.46l2.6.57a1.49,1.49,0,0,1,1.17,1.46V62a1.49,1.49,0,0,1-1.49,1.49H52A1.49,1.49,0,0,1,50.49,62v-.37a1.5,1.5,0,0,1,1.13-1.44l2.12-.53a1.48,1.48,0,0,0,1.12-1.44V31.27a1.49,1.49,0,0,0-1.13-1.45l-2.11-.52a1.51,1.51,0,0,1-1.13-1.45v-.36A1.49,1.49,0,0,1,52,26H69.27a14.09,14.09,0,0,1,4.44.65,9.45,9.45,0,0,1,3.36,1.84A12.59,12.59,0,0,1,80,32.39,10.89,10.89,0,0,1,81,37.13a13,13,0,0,1-1.12,5.19A11.68,11.68,0,0,1,77,46.54a7.63,7.63,0,0,1-3.38,2,15.29,15.29,0,0,1-4.37.6h-6.1A1.49,1.49,0,0,0,61.62,50.63Zm4.89-5.29a8.4,8.4,0,0,0,2.73-.44,5,5,0,0,0,2-1.17A9,9,0,0,0,73,41.21a7.6,7.6,0,0,0,.73-3.41,8.56,8.56,0,0,0-.7-3.35,9.44,9.44,0,0,0-1.8-2.79,6.29,6.29,0,0,0-2.16-1.37,7.59,7.59,0,0,0-2.78-.5H63.11a1.49,1.49,0,0,0-1.49,1.49V43.85a1.49,1.49,0,0,0,1.49,1.49Z"/><path class="cls-3" d="M97.06,39.15a1.62,1.62,0,0,0-1,.42,6.69,6.69,0,0,0-1,1,9.88,9.88,0,0,0-.88,1.33,10.36,10.36,0,0,0-.6,1.22c-.42,1.21-.78,2.43-1.09,3.66A18.44,18.44,0,0,0,92,51.37v6.92a1.48,1.48,0,0,0,1.23,1.46l3.15.56a1.47,1.47,0,0,1,1.23,1.47V62a1.49,1.49,0,0,1-1.48,1.49H82.9A1.49,1.49,0,0,1,81.41,62v-.26a1.49,1.49,0,0,1,1.13-1.44l1.74-.43a1.49,1.49,0,0,0,1.13-1.45V39.64a1.48,1.48,0,0,0-1.13-1.44l-2-.49a1.19,1.19,0,0,1-.91-1.16h0a1.19,1.19,0,0,1,1.2-1.19H89.2a1.48,1.48,0,0,1,1.47,1.24l.93,5.62h.21A13.06,13.06,0,0,1,95,36.74a6.35,6.35,0,0,1,4.5-1.9,4.75,4.75,0,0,1,3.38,1.27,4.47,4.47,0,0,1,1.35,3.41,4.63,4.63,0,0,1-.94,2.83,3.1,3.1,0,0,1-2.65,1.28,3.83,3.83,0,0,1-3-1,3.1,3.1,0,0,1-.86-2.1,3.28,3.28,0,0,1,0-.6Z"/><path class="cls-3" d="M111.68,50.13a1.49,1.49,0,0,0-1.49,1.59,12.78,12.78,0,0,0,1,4.28,5.82,5.82,0,0,0,5.72,3.69,10.92,10.92,0,0,0,4.58-1,9.58,9.58,0,0,0,3-2.12,1.49,1.49,0,0,1,2-.16l.5.39a1.48,1.48,0,0,1,.22,2.15,15.94,15.94,0,0,1-3.94,3.2A14.82,14.82,0,0,1,115.59,64,13.15,13.15,0,0,1,109,62.42a10.12,10.12,0,0,1-4.18-4.49,14.09,14.09,0,0,1-1.15-3.57,23.69,23.69,0,0,1-.36-4.29q0-7.27,3.33-11.25c2.21-2.66,5.39-4,9.51-4a14.29,14.29,0,0,1,5.1.86,10.69,10.69,0,0,1,3.87,2.44,10.8,10.8,0,0,1,2.45,3.9,15,15,0,0,1,.85,5.23c0,.38,0,.75,0,1.11,0,.1,0,.22,0,.35a1.5,1.5,0,0,1-1.49,1.4Zm4.38-11.7q-4.78,0-5.71,6.68a1.49,1.49,0,0,0,1.48,1.69h9.79V45.45a8.18,8.18,0,0,0-1.45-5.21A5,5,0,0,0,116.06,38.43Z"/><path class="cls-3" d="M139.89,60.78a11.15,11.15,0,0,0,2.44-.25,8.17,8.17,0,0,0,2-.73,3.87,3.87,0,0,0,1.35-1.17,2.7,2.7,0,0,0,.49-1.59,2.78,2.78,0,0,0-.65-1.82,5.62,5.62,0,0,0-1.71-1.35,14.8,14.8,0,0,0-2.4-1c-.88-.3-1.76-.58-2.62-.86a22.06,22.06,0,0,1-3.15-1.17,11.36,11.36,0,0,1-2.75-1.77,8,8,0,0,1-2-2.52,7.54,7.54,0,0,1-.73-3.43,7.45,7.45,0,0,1,2.7-6c1.8-1.51,4.39-2.26,7.75-2.26a16.5,16.5,0,0,1,4.32.52,10,10,0,0,1,3.27,1.48,7.17,7.17,0,0,1,2.11,2.29,5.73,5.73,0,0,1,.75,2.88,3.67,3.67,0,0,1-1,2.76,3.63,3.63,0,0,1-2.63.93,3.85,3.85,0,0,1-2.6-.8A2.45,2.45,0,0,1,144,43a3,3,0,0,1,.52-1.69,3.52,3.52,0,0,1,.27-.37,1.45,1.45,0,0,0-.4-2.15l-.47-.23a7.34,7.34,0,0,0-3-.55,5.55,5.55,0,0,0-3.64,1,3.52,3.52,0,0,0-1.2,2.84A3.61,3.61,0,0,0,137.39,45,11.43,11.43,0,0,0,141,46.64c1.39.42,2.76.85,4.11,1.3a17,17,0,0,1,3.62,1.67A8.27,8.27,0,0,1,151.3,52a6.09,6.09,0,0,1,1,3.46,6.88,6.88,0,0,1-1,3.62,8.08,8.08,0,0,1-2.65,2.65,13.72,13.72,0,0,1-4,1.64,20.35,20.35,0,0,1-4.94.57c-3.32,0-5.92-.61-7.77-1.82a5.65,5.65,0,0,1-2.78-4.94,4.54,4.54,0,0,1,1.19-3.33,3.9,3.9,0,0,1,2.86-1.2,4.12,4.12,0,0,1,2.32.71,2.24,2.24,0,0,1,1.06,2A3.33,3.33,0,0,1,136,57.2c-.09.14-.19.28-.29.41a1.45,1.45,0,0,0,.2,2.11c.15.11.33.23.51.34A6.71,6.71,0,0,0,139.89,60.78Z"/><path class="cls-3" d="M161.42,50.13a1.49,1.49,0,0,0-1.49,1.59,13,13,0,0,0,1,4.28,5.82,5.82,0,0,0,5.72,3.69,10.92,10.92,0,0,0,4.58-1,9.62,9.62,0,0,0,3-2.12,1.48,1.48,0,0,1,2-.16l.51.39a1.49,1.49,0,0,1,.22,2.15,16.18,16.18,0,0,1-4,3.2A14.82,14.82,0,0,1,165.33,64a13.14,13.14,0,0,1-6.57-1.54,10.14,10.14,0,0,1-4.19-4.49,14.08,14.08,0,0,1-1.14-3.57,22.78,22.78,0,0,1-.37-4.29q0-7.27,3.33-11.25t9.52-4a14.19,14.19,0,0,1,5.09.86,10.65,10.65,0,0,1,3.88,2.44,10.78,10.78,0,0,1,2.44,3.9,15,15,0,0,1,.86,5.23q0,.57,0,1.11c0,.1,0,.22,0,.35a1.5,1.5,0,0,1-1.49,1.4Zm4.38-11.7q-4.78,0-5.71,6.68a1.5,1.5,0,0,0,1.48,1.69h9.79V45.45a8.18,8.18,0,0,0-1.45-5.21A5,5,0,0,0,165.8,38.43Z"/><path class="cls-3" d="M181.48,39l-1.74-.43a1.5,1.5,0,0,1-1.13-1.45v-.25a1.49,1.49,0,0,1,1.49-1.49h6.36a1.5,1.5,0,0,1,1.46,1.17l.88,4H189a11.45,11.45,0,0,1,4.19-4.19,11.09,11.09,0,0,1,5.69-1.53,9.14,9.14,0,0,1,3.74.73,6.28,6.28,0,0,1,2.66,2.08,9.94,9.94,0,0,1,1.48,4.08,45.32,45.32,0,0,1,.44,7.09v9.55a1.5,1.5,0,0,0,1.13,1.45l1.74.43a1.48,1.48,0,0,1,1.13,1.44V62a1.49,1.49,0,0,1-1.49,1.49H198.61A1.49,1.49,0,0,1,197.12,62v-.3a1.48,1.48,0,0,1,1.08-1.43l1.32-.38a1.49,1.49,0,0,0,1.09-1.43V49.5c0-2.08-.07-3.7-.19-4.86a9,9,0,0,0-.65-2.78A3.53,3.53,0,0,0,198.21,40a4.9,4.9,0,0,0-2.34-.52,6,6,0,0,0-4.31,1.66q-2.13,2-2.34,6.08v11.2a1.48,1.48,0,0,0,1.08,1.43l1.32.38a1.48,1.48,0,0,1,1.08,1.43V62a1.49,1.49,0,0,1-1.49,1.49H180.1A1.49,1.49,0,0,1,178.61,62v-.26a1.49,1.49,0,0,1,1.13-1.44l1.74-.43a1.49,1.49,0,0,0,1.13-1.45V40.42A1.48,1.48,0,0,0,181.48,39Z"/><path class="cls-3" d="M224.65,34.84a16.36,16.36,0,0,1,4.42.57,11.16,11.16,0,0,1,3.51,1.64,8,8,0,0,1,2.31,2.57,6.85,6.85,0,0,1,.83,3.33,4.72,4.72,0,0,1-1.25,3.56,4.18,4.18,0,0,1-3.06,1.22,3.91,3.91,0,0,1-1.72-.33,3.4,3.4,0,0,1-1.12-.89,3.28,3.28,0,0,1-.62-1.22,5.22,5.22,0,0,1-.18-1.35,3.77,3.77,0,0,1,.65-2.24,3.07,3.07,0,0,1,.28-.35,1.5,1.5,0,0,0-.4-2.46l-.12,0a8.9,8.9,0,0,0-3.27-.57,7.14,7.14,0,0,0-2.94.57,5.22,5.22,0,0,0-2.16,1.85,9.46,9.46,0,0,0-1.35,3.38,24.38,24.38,0,0,0-.47,5.17,21.24,21.24,0,0,0,.36,4.42,12.14,12.14,0,0,0,1,2.81,6.72,6.72,0,0,0,2.13,2.37,6,6,0,0,0,3.33.85,9.83,9.83,0,0,0,2.21-.26,12,12,0,0,0,2.29-.75,10.34,10.34,0,0,0,2.13-1.27,8.67,8.67,0,0,0,1-.86,1.5,1.5,0,0,1,2-.11l.46.35a1.5,1.5,0,0,1,.21,2.16,13.46,13.46,0,0,1-4.67,3.58A16.6,16.6,0,0,1,223.55,64,13.36,13.36,0,0,1,217,62.48a10.41,10.41,0,0,1-4.16-4.35,15.46,15.46,0,0,1-1.38-3.82,20.8,20.8,0,0,1-.49-4.65,18.57,18.57,0,0,1,.94-6.11,13.44,13.44,0,0,1,2.67-4.68,11.41,11.41,0,0,1,4.29-3A15.08,15.08,0,0,1,224.65,34.84Z"/><path class="cls-3" d="M244.77,50.13a1.49,1.49,0,0,0-1.49,1.59,12.77,12.77,0,0,0,1,4.28A5.8,5.8,0,0,0,250,59.69a10.88,10.88,0,0,0,4.57-1,9.62,9.62,0,0,0,3-2.12,1.49,1.49,0,0,1,2-.16l.5.39a1.49,1.49,0,0,1,.22,2.15,16,16,0,0,1-3.95,3.2A14.81,14.81,0,0,1,248.69,64a13.15,13.15,0,0,1-6.58-1.54,10.14,10.14,0,0,1-4.19-4.49,14.08,14.08,0,0,1-1.14-3.57,22.78,22.78,0,0,1-.37-4.29q0-7.27,3.33-11.25t9.52-4a14.19,14.19,0,0,1,5.09.86,10.65,10.65,0,0,1,3.88,2.44,10.78,10.78,0,0,1,2.44,3.9,15,15,0,0,1,.86,5.23q0,.57,0,1.11c0,.1,0,.22,0,.35a1.5,1.5,0,0,1-1.48,1.4Zm4.38-11.7q-4.78,0-5.71,6.68a1.5,1.5,0,0,0,1.48,1.69h9.8V45.45a8.18,8.18,0,0,0-1.46-5.21A5,5,0,0,0,249.15,38.43Z"/></g></g></svg>